<svg width="3700" height="700" viewBox="0 0 3700 700" fill="none" xmlns="http://www.w3.org/2000/svg">
<path d="M0 232.4C0 41.0186 41.0186 0 232.4 0H3467.6C3658.98 0 3700 41.0186 3700 232.4V467.6C3700 658.981 3658.98 700 3467.6 700H232.4C41.0186 700 0 658.981 0 467.6V232.4Z" fill="white"/>
<rect x="236" y="226" width="186" height="324" fill="white"/>
<path d="M362.083 243.167H327.083C322.247 243.167 318.333 247.081 318.333 251.917C318.333 256.753 322.247 260.667 327.083 260.667H362.083C366.919 260.667 370.833 256.753 370.833 251.917C370.833 247.081 366.919 243.167 362.083 243.167Z" fill="#2F80ED"/>
<path d="M400 214H260C240.704 214 225 229.704 225 249V529C225 548.296 240.704 564 260 564H400C419.296 564 435 548.296 435 529V249C435 229.704 419.296 214 400 214ZM417.5 529C417.5 538.666 409.666 546.5 400 546.5H260C250.334 546.5 242.5 538.666 242.5 529V249C242.5 239.334 250.334 231.5 260 231.5H400C409.666 231.5 417.5 239.334 417.5 249V529Z" fill="#2F80ED"/>
<path d="M330 534.833C339.665 534.833 347.5 526.998 347.5 517.333C347.5 507.668 339.665 499.833 330 499.833C320.335 499.833 312.5 507.668 312.5 517.333C312.5 526.998 320.335 534.833 330 534.833Z" fill="#2F80ED"/>
<path d="M297.917 260.667C302.749 260.667 306.667 256.749 306.667 251.917C306.667 247.084 302.749 243.167 297.917 243.167C293.084 243.167 289.167 247.084 289.167 251.917C289.167 256.749 293.084 260.667 297.917 260.667Z" fill="#2F80ED"/>
<g filter="url(#filter0_b)">
<rect x="341" y="149" width="186" height="324" fill="white" fill-opacity="0.6"/>
</g>
<path d="M467.083 166.167H432.083C427.247 166.167 423.333 170.081 423.333 174.917C423.333 179.753 427.247 183.667 432.083 183.667H467.083C471.919 183.667 475.833 179.753 475.833 174.917C475.833 170.081 471.919 166.167 467.083 166.167Z" fill="#4F4F4F"/>
<path d="M505 137H365C345.704 137 330 152.704 330 172V452C330 471.296 345.704 487 365 487H505C524.296 487 540 471.296 540 452V172C540 152.704 524.296 137 505 137ZM522.5 452C522.5 461.666 514.666 469.5 505 469.5H365C355.334 469.5 347.5 461.666 347.5 452V172C347.5 162.334 355.334 154.5 365 154.5H505C514.666 154.5 522.5 162.334 522.5 172V452Z" fill="#4F4F4F"/>
<path d="M435 457.833C444.665 457.833 452.5 449.998 452.5 440.333C452.5 430.668 444.665 422.833 435 422.833C425.335 422.833 417.5 430.668 417.5 440.333C417.5 449.998 425.335 457.833 435 457.833Z" fill="#4F4F4F"/>
<path d="M402.917 183.667C407.749 183.667 411.667 179.749 411.667 174.917C411.667 170.084 407.749 166.167 402.917 166.167C398.084 166.167 394.167 170.084 394.167 174.917C394.167 179.749 398.084 183.667 402.917 183.667Z" fill="#4F4F4F"/>
<path d="M727.403 460H771.43V384.586H805.097L845.394 460H894.082L849.019 377.438C873.156 367.079 886.519 346.05 886.519 316.941C886.519 275.09 858.86 247.845 810.587 247.845H727.403V460ZM771.43 348.95V283.999H802.403C828.612 283.999 841.146 295.704 841.146 316.941C841.146 338.177 828.612 348.95 802.507 348.95H771.43ZM984.709 463.108C1023.87 463.108 1050.18 444.047 1056.5 414.731H1015.27C1010.81 424.157 1000.35 430.58 985.434 430.58C963.162 430.58 948.867 415.767 948.867 391.63H1057.53V379.51C1057.53 325.228 1024.7 298.812 982.948 298.812C936.332 298.812 905.98 332.065 905.98 381.167C905.98 431.616 935.918 463.108 984.709 463.108ZM948.867 364.489C949.903 346.257 963.784 331.236 983.673 331.236C1003.04 331.236 1016.51 345.221 1016.62 364.489H948.867ZM1076.73 415.559C1076.73 446.948 1099.21 463.004 1129.66 463.004C1153.28 463.004 1168.41 452.645 1176.17 437.935H1177.42V460H1218.54V352.783C1218.54 314.454 1185.81 298.812 1151 298.812C1108.84 298.812 1084.81 320.566 1082.32 348.225H1123.45C1125.83 337.348 1135.15 330.615 1149.97 330.615C1166.13 330.615 1175.24 338.28 1175.24 351.747L1175.35 364.593C1168.61 364.8 1147.17 365.732 1135.77 366.457C1105.32 368.425 1076.73 379.924 1076.73 415.559ZM1118.16 414.213C1118.16 401.989 1127.8 394.841 1142.92 393.598C1150.28 392.873 1169.03 391.837 1175.45 391.526L1175.55 403.128C1175.55 419.91 1161.67 432.859 1141.99 432.859C1128.11 432.859 1118.16 426.54 1118.16 414.213ZM1322.17 463.108C1364.23 463.108 1390.75 438.349 1392.82 402.196H1352.01C1349.31 419.185 1337.92 428.612 1322.69 428.612C1301.66 428.612 1288.09 411.105 1288.09 380.442C1288.09 350.09 1301.87 332.686 1322.69 332.686C1339.06 332.686 1349.42 343.564 1352.01 359.309H1392.82C1390.96 322.742 1363.2 298.812 1322.07 298.812C1273.9 298.812 1244.07 332.272 1244.07 381.064C1244.07 429.441 1273.38 463.108 1322.17 463.108ZM1502.66 300.884H1472.62V262.762H1429.32V300.884H1407.36V333.515H1429.32V417.113C1429.12 448.087 1450.46 462.175 1481.95 462.175C1492.51 462.175 1500.18 461.347 1504.84 460.622V426.436C1499.66 426.747 1492.1 427.265 1487.85 427.162C1478.94 426.851 1472.62 423.847 1472.62 411.209V333.515H1502.66V300.884ZM1598.99 247.845V460H1641.77V320.566H1643.43L1698.85 459.068H1728.16L1783.48 321.084H1785.35V460H1828.03V247.845H1773.74L1714.8 391.63H1712.31L1653.37 247.845H1598.99ZM1933.6 463.108C1981.77 463.108 2011.71 430.062 2011.71 381.064C2011.71 331.754 1981.77 298.812 1933.6 298.812C1885.53 298.812 1855.49 331.754 1855.49 381.064C1855.49 430.062 1885.53 463.108 1933.6 463.108ZM1899.52 380.753C1899.52 352.887 1911.22 331.961 1933.91 331.961C1956.08 331.961 1967.68 352.887 1967.68 380.753C1967.68 408.722 1956.08 429.441 1933.91 429.441C1911.22 429.441 1899.52 408.722 1899.52 380.753ZM2039.02 460H2081.81V434.62H2083.67C2089.89 447.673 2103.04 462.59 2128.94 462.59C2165.3 462.59 2193.69 433.791 2193.69 380.649C2193.69 326.16 2164.16 298.812 2128.94 298.812C2102.22 298.812 2089.68 314.765 2083.67 327.61H2082.43V247.845H2039.02V460ZM2081.39 380.442C2081.39 351.747 2093.62 333.515 2115.37 333.515C2137.54 333.515 2149.25 352.576 2149.25 380.442C2149.25 408.515 2137.33 427.99 2115.37 427.99C2093.82 427.99 2081.39 409.033 2081.39 380.442ZM2220.61 460H2263.91V300.884H2220.61V460ZM2218.64 257.997C2218.64 270.221 2229.31 280.062 2242.37 280.062C2255.31 280.062 2265.98 270.221 2265.98 257.997C2265.98 245.877 2255.31 235.932 2242.37 235.932C2229.31 235.932 2218.64 245.877 2218.64 257.997ZM2340.38 247.845H2297.08V460H2340.38V247.845ZM2445.74 463.108C2484.9 463.108 2511.21 444.047 2517.53 414.731H2476.3C2471.85 424.157 2461.39 430.58 2446.47 430.58C2424.2 430.58 2409.9 415.767 2409.9 391.63H2518.57V379.51C2518.57 325.228 2485.73 298.812 2443.98 298.812C2397.37 298.812 2367.02 332.065 2367.02 381.167C2367.02 431.616 2396.95 463.108 2445.74 463.108ZM2409.9 364.489C2410.94 346.257 2424.82 331.236 2444.71 331.236C2464.08 331.236 2477.55 345.221 2477.65 364.489H2409.9ZM2615.29 460H2659.32V372.051H2745.82V335.691H2659.32V284.309H2755.14V247.845H2615.29V460ZM2779.6 460H2822.9V369.565C2822.9 349.986 2837.4 336.312 2856.98 336.312C2863.09 336.312 2871.48 337.452 2875.52 338.695V299.952C2871.58 299.227 2865.99 298.605 2861.64 298.605C2843.82 298.605 2829.11 308.964 2823.31 328.543H2821.65V300.884H2779.6V460ZM2883.76 415.559C2883.76 446.948 2906.24 463.004 2936.69 463.004C2960.31 463.004 2975.44 452.645 2983.21 437.935H2984.45V460H3025.57V352.783C3025.57 314.454 2992.84 298.812 2958.03 298.812C2915.87 298.812 2891.84 320.566 2889.35 348.225H2930.48C2932.86 337.348 2942.18 330.615 2957 330.615C2973.16 330.615 2982.27 338.28 2982.27 351.747L2982.38 364.593C2975.64 364.8 2954.2 365.732 2942.81 366.457C2912.35 368.425 2883.76 379.924 2883.76 415.559ZM2925.19 414.213C2925.19 401.989 2934.83 394.841 2949.95 393.598C2957.31 392.873 2976.06 391.837 2982.48 391.526L2982.58 403.128C2982.58 419.91 2968.7 432.859 2949.02 432.859C2935.14 432.859 2925.19 426.54 2925.19 414.213ZM3057.62 460H3100.92V364.385C3100.92 346.464 3112.32 334.655 3127.24 334.655C3141.95 334.655 3151.79 344.703 3151.79 360.345V460H3193.85V362.624C3193.85 345.946 3203.48 334.655 3219.74 334.655C3233.94 334.655 3244.71 343.46 3244.71 361.381V460H3288.01V352.99C3288.01 318.391 3267.4 298.812 3237.77 298.812C3214.56 298.812 3196.54 310.622 3189.91 328.854H3188.25C3183.07 310.414 3166.91 298.812 3145.16 298.812C3123.61 298.812 3107.45 310.207 3100.82 328.854H3098.96V300.884H3057.62V460ZM3392.62 463.108C3431.78 463.108 3458.09 444.047 3464.41 414.731H3423.18C3418.72 424.157 3408.26 430.58 3393.34 430.58C3371.07 430.58 3356.78 415.767 3356.78 391.63H3465.44V379.51C3465.44 325.228 3432.61 298.812 3390.86 298.812C3344.24 298.812 3313.89 332.065 3313.89 381.167C3313.89 431.616 3343.83 463.108 3392.62 463.108ZM3356.78 364.489C3357.81 346.257 3371.69 331.236 3391.58 331.236C3410.95 331.236 3424.42 345.221 3424.53 364.489H3356.78Z" fill="#333333"/>
<defs>
<filter id="filter0_b" x="311" y="119" width="246" height="384" filterUnits="userSpaceOnUse" color-interpolation-filters="sRGB">
<feFlood flood-opacity="0" result="BackgroundImageFix"/>
<feGaussianBlur in="BackgroundImage" stdDeviation="15"/>
<feComposite in2="SourceAlpha" operator="in" result="effect1_backgroundBlur"/>
<feBlend mode="normal" in="SourceGraphic" in2="effect1_backgroundBlur" result="shape"/>
</filter>
</defs>
</svg>
